<svg id="Group_2" data-name="Group 2" xmlns="http://www.w3.org/2000/svg" xmlns:xlink="http://www.w3.org/1999/xlink" width="228.98" height="66.919" viewBox="0 0 228.98 66.919">
  <defs>
    <clipPath id="clip-path">
      <rect id="Rectangle_1" data-name="Rectangle 1" width="228.981" height="66.919" fill="none"/>
    </clipPath>
  </defs>
  <g id="Group_1" data-name="Group 1" transform="translate(0 0)" clip-path="url(#clip-path)">
    <path id="Path_1" data-name="Path 1" d="M228.981,0H0V66.919H207.341A21.535,21.535,0,0,0,228.981,45.49Z" transform="translate(0 0)" fill="#00305e"/>
    <path id="Path_2" data-name="Path 2" d="M21.128,35.516a18.9,18.9,0,0,0,3.635.274c7.039,0,10.075-5.331,10.075-11.846,0-6.836-3.313-9.751-8.558-9.751a14.946,14.946,0,0,0-2.99.319ZM17.492,9.636A32.191,32.191,0,0,1,25.82,8.589c9.985,0,15.921,4.6,15.921,15.491,0,11.254-6.534,17.633-18.174,17.633a69.657,69.657,0,0,1-9.892-.73Z" transform="translate(8.497 5.337)" fill="#fff"/>
    <path id="Path_3" data-name="Path 3" d="M40.686,30.407c-.23,1.959.368,2.323,1.38,2.323a3.423,3.423,0,0,0,1.75-.456,7.555,7.555,0,0,1-1.244,5.331,6.657,6.657,0,0,1-3.543.866c-3.634,0-5.106-1.686-5.106-5.057,0-.73.138-1.96.229-2.734l2.071-15.493a7.272,7.272,0,0,1,3.084-.5,6.251,6.251,0,0,1,2.99.5Z" transform="translate(21.08 9.127)" fill="#fff"/>
    <path id="Path_4" data-name="Path 4" d="M62.974,37.473a7.341,7.341,0,0,1-3.267.546,6.767,6.767,0,0,1-3.128-.546l1.655-13.258a13.342,13.342,0,0,0,.092-1.367c0-1.5-.46-2.779-2.531-2.779-2.161,0-3.588,1.321-4.555,3.507l-1.565,13.9a7.573,7.573,0,0,1-3.313.546,6.955,6.955,0,0,1-3.22-.546l2.807-21.824a12.007,12.007,0,0,1,5.06-.866V19.02h.323a7.219,7.219,0,0,1,7.176-4.783c3.59,0,5.292,1.732,5.8,4.556h.368c.919-2.6,3.22-4.556,6.993-4.556,3.728,0,6.074,1.913,6.074,6.515a22.454,22.454,0,0,1-.138,2.278l-.829,7.655c-.23,1.959.368,2.323,1.38,2.323a3.423,3.423,0,0,0,1.75-.456,7.556,7.556,0,0,1-1.244,5.331,6.485,6.485,0,0,1-3.5.866c-3.635,0-5.062-1.686-5.062-5.057,0-.73.138-1.96.23-2.734l.921-6.7c.045-.456.092-.911.092-1.321,0-1.5-.507-2.87-2.531-2.87-2.118,0-3.4,1.367-4.417,3.416Z" transform="translate(26.81 8.847)" fill="#fff"/>
    <path id="Path_5" data-name="Path 5" d="M76.346,32.552a7.227,7.227,0,0,0,2.576.456,5.385,5.385,0,0,0,4.371-1.868,10.611,10.611,0,0,0,1.84-6.515c0-3.418-1.2-4.694-3.313-4.694-2.071,0-3.358,1.367-4.324,3.144Zm-4.186-16.9a12.012,12.012,0,0,1,5.06-.866v4.191h.323a7.335,7.335,0,0,1,7.178-4.738c5.245,0,6.9,4.1,6.9,9.386,0,4.055-1.151,8.7-3.314,11.39-2.071,2.6-4.785,3.736-8.741,3.736a9.386,9.386,0,0,1-3.773-.637L74.6,48.454a7.818,7.818,0,0,1-3.36.548,7.185,7.185,0,0,1-3.266-.548Z" transform="translate(42.239 8.847)" fill="#fff"/>
    <path id="Path_6" data-name="Path 6" d="M101.153,19.978a3.964,3.964,0,0,0-2.207-.5,5.637,5.637,0,0,0-4.739,2.1c-1.336,1.732-1.795,4.556-1.795,6.651,0,3.418,1.059,4.694,3.313,4.694a4.85,4.85,0,0,0,4.05-2.1Zm5.017,10.708c-.23,1.913.366,2.323,1.378,2.323a3.429,3.429,0,0,0,1.751-.456,7.563,7.563,0,0,1-1.242,5.331,6.491,6.491,0,0,1-3.5.866c-2.714,0-4.373-1.185-4.6-3.964h-.323a6.833,6.833,0,0,1-6.578,3.964c-3.82,0-7.178-2.233-7.178-9.386A17.452,17.452,0,0,1,88.87,19.112c2.484-3.416,6.44-4.874,10.627-4.874a13.159,13.159,0,0,1,8.188,2.55Z" transform="translate(53.366 8.848)" fill="#fff"/>
    <path id="Path_7" data-name="Path 7" d="M113.338,38.75c-6.534,0-10.122-3.6-10.122-10.615a15.247,15.247,0,0,1,2.9-9.432,11.529,11.529,0,0,1,9.707-4.465A9.306,9.306,0,0,1,120.7,15.33a8.54,8.54,0,0,1,.921,5.7,9.129,9.129,0,0,0-4.832-1.321,6.8,6.8,0,0,0-5.153,1.959,7.873,7.873,0,0,0-1.886,5.513c0,4.284,2.161,5.787,5.844,5.787a12.159,12.159,0,0,0,5.244-1.184,8.011,8.011,0,0,1-1.748,5.74,12.638,12.638,0,0,1-5.751,1.231" transform="translate(64.14 8.847)" fill="#fff"/>
    <path id="Path_8" data-name="Path 8" d="M121.559,17.366l.691-5.15a11.145,11.145,0,0,1,6.119-1.548l-.783,6.7h5.383a5.51,5.51,0,0,1,.323,2.095,7.255,7.255,0,0,1-.644,3.327h-5.659l-.968,8.793c-.276,2.323.23,3.418,2.486,3.418a6.349,6.349,0,0,0,3.681-1.14A8.08,8.08,0,0,1,130.9,39.6a9.006,9.006,0,0,1-5.2,1.367c-4.647,0-6.442-2.142-6.442-5.832a25.609,25.609,0,0,1,.276-3.235l1.244-9.112H117.6a15.6,15.6,0,0,1,1.15-5.422Z" transform="translate(73.08 6.629)" fill="#fff"/>
    <path id="Path_9" data-name="Path 9" d="M39.1,8.766a3.379,3.379,0,0,0-3.582,3.63,3.01,3.01,0,0,0,3.207,3.343A3.38,3.38,0,0,0,42.3,12.108c0-2.124-1.169-3.342-3.207-3.342" transform="translate(22.069 5.447)" fill="#db1778"/>
  </g>
</svg>
